<svg width="76" height="27" viewBox="0 0 76 27" fill="none" xmlns="http://www.w3.org/2000/svg">
<path id="Vector" d="M18.4214 0.38595C19.0844 0.280642 19.6319 0.196791 20.1755 0.0938386C22.4114 -0.329608 23.5674 0.709705 24.5822 2.61268C27.3426 7.78872 30.3671 12.8303 33.2236 17.9588C33.8115 19.0143 34.6378 19.1656 35.6464 18.9906C36.9443 18.7655 37.6258 17.7369 37.6704 16.6698C37.8074 13.3986 37.7203 10.1184 37.7203 6.51734C34.9188 6.69551 32.2915 6.8827 29.661 7.00197C29.3647 7.0154 28.8274 6.68885 28.7774 6.44631C28.022 2.78728 30.3147 0.102774 34.1535 0.0957889C37.4831 0.0897289 40.8128 0.094395 44.1425 0.0944622C46.5633 0.0945124 46.5633 0.0946172 46.8529 2.44977C47.9582 1.83363 48.9835 0.960409 50.1583 0.678422C51.8899 0.262772 53.7254 0.164018 55.5213 0.123674C57.329 0.0830664 59.2006 0.0349343 60.9389 0.430144C63.3511 0.978598 64.5525 2.82171 64.478 4.99579C64.4447 5.96553 64.0119 6.41037 63.0192 6.40492C60.7213 6.3923 58.4233 6.39994 56.1254 6.40335C53.85 6.40672 52.9173 7.40785 53.0227 9.8943C53.4973 9.91829 53.9892 9.96357 54.4812 9.96469C57.4826 9.97153 60.4867 9.8977 63.484 10.005C64.6048 10.0451 65.8143 10.3042 66.8012 10.8046C69.0337 11.9365 69.5621 13.4188 69.092 16.5297C63.7607 16.5297 58.3974 16.5297 53.0389 16.5297C53.0224 18.717 54.5415 20.0989 56.8516 20.11C61.0722 20.1302 65.2936 20.0764 69.5132 20.1426C70.6534 20.1605 71.832 20.3691 72.9168 20.7163C75.5154 21.5481 76.3841 23.3615 75.8494 26.5663C73.9721 26.7011 72.0808 26.9272 70.1865 26.9543C66.0136 27.0137 61.8384 27.0179 57.6657 26.9509C55.9573 26.9235 54.2269 26.7839 52.5524 26.4657C49.5584 25.8968 47.4468 24.0705 46.2515 21.9847C44.9205 23.0544 43.6597 24.3751 42.122 25.213C40.7153 25.9795 39.0384 26.4329 37.4276 26.6478C35.2198 26.9422 32.9614 26.8694 30.7258 26.9776C29.6881 27.0279 28.963 26.6816 28.4748 25.734C27.8722 24.5644 27.0859 23.483 26.5093 22.303C26.1591 21.5866 25.6803 21.4731 24.9713 21.4772C21.079 21.4998 17.186 21.4596 13.2945 21.5193C12.7287 21.528 11.9636 21.8044 11.6397 22.2171C8.70344 25.9578 4.76251 27.0555 0 26.6102C0.0951622 26.1048 0.0639341 25.6227 0.269837 25.2733C3.89706 19.1197 7.6075 13.012 11.176 6.82639C12.571 4.40818 14.0098 2.13514 16.7514 0.990893C17.2621 0.77777 17.7862 0.595257 18.4214 0.38595ZM16.2308 15.7212C18.3037 15.7212 20.3766 15.7212 22.7436 15.7212C21.4587 13.507 20.3547 11.6047 19.0415 9.34197C17.8491 11.521 16.8106 13.4096 15.7951 15.3099C15.7557 15.3835 15.9373 15.5693 16.2308 15.7212Z" fill="white"/>
</svg>
